<?xml version="1.0" encoding="utf-8"?>
<!-- Generator: Adobe Illustrator 24.0.1, SVG Export Plug-In . SVG Version: 6.00 Build 0)  -->
<svg version="1.1" id="图层_1" xmlns="http://www.w3.org/2000/svg" xmlns:xlink="http://www.w3.org/1999/xlink" x="0px" y="0px"
	 viewBox="0 0 500 500" style="enable-background:new 0 0 500 500;" xml:space="preserve">
<style type="text/css">
	.st0{fill:url(#SVGID_1_);stroke:url(#SVGID_2_);stroke-width:47;stroke-miterlimit:10;}
	.st1{fill:url(#SVGID_3_);}
	.st2{fill:url(#SVGID_4_);}
	.st3{fill:url(#SVGID_5_);}
	.st4{fill:url(#SVGID_6_);}
	.st5{fill:url(#SVGID_7_);}
	.st6{fill:url(#SVGID_8_);}
	.st7{fill:url(#SVGID_9_);}
	.st8{fill:url(#SVGID_10_);}
	.st9{fill:url(#SVGID_11_);}
	.st10{fill:none;}
</style>
<linearGradient id="SVGID_1_" gradientUnits="userSpaceOnUse" x1="137.7313" y1="55.5448" x2="362.2687" y2="444.4552">
	<stop  offset="0" style="stop-color:#3DA9FC"/>
	<stop  offset="0.155" style="stop-color:#3DA1FC"/>
	<stop  offset="0.3889" style="stop-color:#3E8DFC"/>
	<stop  offset="0.6724" style="stop-color:#3F6BFC"/>
	<stop  offset="0.9925" style="stop-color:#403CFC"/>
	<stop  offset="1" style="stop-color:#403BFC"/>
</linearGradient>
<linearGradient id="SVGID_2_" gradientUnits="userSpaceOnUse" x1="125.9813" y1="35.1932" x2="374.0187" y2="464.8068">
	<stop  offset="0" style="stop-color:#3DA9FC"/>
	<stop  offset="0.155" style="stop-color:#3DA1FC"/>
	<stop  offset="0.3889" style="stop-color:#3E8DFC"/>
	<stop  offset="0.6724" style="stop-color:#3F6BFC"/>
	<stop  offset="0.9925" style="stop-color:#403CFC"/>
	<stop  offset="1" style="stop-color:#403BFC"/>
</linearGradient>
<circle class="st0" cx="250" cy="250" r="224.5"/>
<g>
	<linearGradient id="SVGID_3_" gradientUnits="userSpaceOnUse" x1="127.2997" y1="304.054" x2="368.0686" y2="304.054">
		<stop  offset="0" style="stop-color:#3DA9FC"/>
		<stop  offset="1" style="stop-color:#D8EEFE"/>
	</linearGradient>
	<path class="st1" d="M127.3,346.6c10.4-19.8,27.7-32,48.2-40.1c33.5-13.2,34.1-14.3,14.9-44.8c1.1-3.5,3-5.9,7.1-6.1
		c6.7,1.1,11.1,5.7,15.9,9.7c26.9,22.8,40.3,22.9,68.4,0.2c4.9-3.9,9.2-8.6,15.9-9.9c4.1,0.1,6.2,2.4,7,6c-2.8,4.6-6.1,9-8.4,13.9
		c-6.3,13.3-6.2,23.5,12.1,27.7c26,6,46.6,20,59.7,43.4c-1.2,3.5-3.3,6-7.5,6c-9.1-2.3-13.6-10.5-20.5-15.7
		c-20.5-15.5-40.7-26.6-67.2-10c-15.5,9.7-35,9.7-50.5,0c-26.5-16.6-46.7-5.5-67.2,9.9c-6.9,5.2-11.3,13.3-20.5,15.7
		C130.6,352.6,128.6,350,127.3,346.6z"/>
	<linearGradient id="SVGID_4_" gradientUnits="userSpaceOnUse" x1="112.2359" y1="370.0263" x2="383.2641" y2="370.0263">
		<stop  offset="0" style="stop-color:#3DA9FC"/>
		<stop  offset="1" style="stop-color:#D8EEFE"/>
	</linearGradient>
	<path class="st2" d="M363.2,352.1c1.6-1.8,3.2-3.7,4.8-5.5c1,1.2,2.3,2.2,3,3.6c20.4,38.2,17.3,43.3-26.2,43.3
		c-68.8,0-137.7,0-206.5,0c-28.8,0-30.5-2.1-21-28.5c2.3-6.5,6.5-12.3,9.8-18.5c1.6,1.8,3.2,3.7,4.8,5.5
		c0.5,22.3,13.3,26.3,34.1,25.8c54.3-1.4,108.7-1.4,163,0C349.9,378.3,362.8,374.5,363.2,352.1z"/>
	<linearGradient id="SVGID_5_" gradientUnits="userSpaceOnUse" x1="161.3836" y1="193.207" x2="273.3495" y2="193.207">
		<stop  offset="0" style="stop-color:#3DA9FC"/>
		<stop  offset="1" style="stop-color:#D8EEFE"/>
	</linearGradient>
	<path class="st3" d="M195.3,255.6c-1.6,2-3.3,4-4.9,6.1c-19.7-41.6-37.7-83.6-24.4-131c0.6-2,2.6-3.6,3.9-5.4
		c4.5-1.5,6.8,1,8.6,4.4c3.6,16-5.2,32.1-0.5,46c22.4-29.2,60.8-14.6,89.1-28.1c3.6,1.8,5.9,4.5,6.3,8.5c-8.6,19-27.1,20-44.2,22.3
		c-30.8,4-32.2,5.8-33.1,36.2C195.6,228.2,202.8,242,195.3,255.6z"/>
	<linearGradient id="SVGID_6_" gradientUnits="userSpaceOnUse" x1="267.0523" y1="195.7038" x2="335.6729" y2="195.7038">
		<stop  offset="0" style="stop-color:#3DA9FC"/>
		<stop  offset="1" style="stop-color:#D8EEFE"/>
	</linearGradient>
	<path class="st4" d="M272.7,153.9c-1.9-1.6-3.8-3.3-5.7-4.9c6.5-18.5,15.6-22.6,30.1-12.6c12,8.3,20.8,19.2,22.8,34.5
		c0.5-12.3-5.1-23.9-3-36c1.5-3.4,3.6-6.1,8.1-4.8c20.1,28.2,6.7,58-0.4,85c-4,15-8.2,33.1-20,46.4c-1.5-2-3-4-4.5-6
		c-5.6-23,1.8-46.1-0.6-69.1C297.7,169.5,293.3,155.7,272.7,153.9z"/>
	<linearGradient id="SVGID_7_" gradientUnits="userSpaceOnUse" x1="169.8586" y1="109.4149" x2="325.0643" y2="109.4149">
		<stop  offset="0" style="stop-color:#3DA9FC"/>
		<stop  offset="1" style="stop-color:#D8EEFE"/>
	</linearGradient>
	<path class="st5" d="M325.1,130.1c-1.7,1.8-3.5,3.6-5.2,5.4c-15-0.1-24.4-10.7-34.8-18.5c-32.2-24.1-61.8-23.7-92.3,2.6
		c-5.2,4.5-8.5,11.7-17.1,11.5c-1.9-2-3.9-3.9-5.8-5.9c24.5-44.3,83.9-56,121.3-23.1C302.2,111.9,319.7,114.1,325.1,130.1z"/>
	<linearGradient id="SVGID_8_" gradientUnits="userSpaceOnUse" x1="125.4413" y1="347.5682" x2="369.9302" y2="347.5682">
		<stop  offset="0" style="stop-color:#3DA9FC"/>
		<stop  offset="1" style="stop-color:#D8EEFE"/>
	</linearGradient>
	<path class="st6" d="M363.2,352.1c11.2,32,11.2,32-22.8,32c-61.9,0-123.7,0-185.6,0c-33.9,0-33.9,0-22.7-32
		c9.5-9.3,16.9-20.9,29.2-27.1c19.3-9.8,37.1-23.3,60.4-4.1c13.8,11.3,35.5,11.9,49.9,1c28.1-21.2,48.7-6,69.9,9
		C349.8,336.5,356.1,344.9,363.2,352.1z"/>
	<linearGradient id="SVGID_9_" gradientUnits="userSpaceOnUse" x1="189.4812" y1="219.0823" x2="306.4529" y2="219.0823">
		<stop  offset="0" style="stop-color:#3DA9FC"/>
		<stop  offset="1" style="stop-color:#D8EEFE"/>
	</linearGradient>
	<path class="st7" d="M272.7,153.9c17.2-8.6,30.5-1.6,32,20.3c1.8,27.1,4.3,54.6-4.6,81.3c-19.1,20.5-39.2,40.2-71,29
		c-14.2-5-23.7-18-33.8-28.9c-1.9-10.6-5.6-20.7-5.7-31.8c-0.4-46-0.7-45.7,45.5-52.3C249.2,169.5,263.1,165.7,272.7,153.9z"/>
	<linearGradient id="SVGID_10_" gradientUnits="userSpaceOnUse" x1="213.5308" y1="301.9984" x2="282.4491" y2="301.9984">
		<stop  offset="0" style="stop-color:#3DA9FC"/>
		<stop  offset="1" style="stop-color:#D8EEFE"/>
	</linearGradient>
	<path class="st8" d="M214.4,285.7c18.9,12.9,36.9,16.1,55.8,4.8c2.5-1.5,7.8-4.9,10.6-0.5c1.8,2.8,2.4,8.3,0.7,10.9
		c-10.1,16.4-26.4,19.8-43.9,16C223.5,313.8,210,307.8,214.4,285.7z"/>
	<linearGradient id="SVGID_11_" gradientUnits="userSpaceOnUse" x1="170.6762" y1="140.7329" x2="324.6742" y2="140.7329">
		<stop  offset="0" style="stop-color:#3DA9FC"/>
		<stop  offset="1" style="stop-color:#D8EEFE"/>
	</linearGradient>
	<path class="st9" d="M175.7,131.1c27.6-35.3,68.2-48.9,97.2-30.8c16.6,10.3,31.4,23.4,47,35.2c5.4,16.7,8.6,33.4-3.5,53.6
		c-0.9-17.1-3.3-30.7-13.5-41.6c-13-13.8-24.7-17.1-35.8,1.5c-15.6,8.5-31.4,15.7-50.1,13.7c-19-1.9-33.2,4.6-38.3,25.9
		C166,168.4,171.1,149.8,175.7,131.1z"/>
</g>
<path class="st10" d="M252,436.5"/>
<path class="st10" d="M252-12.5"/>
<line class="st10" x1="26" y1="250" x2="475" y2="250"/>
</svg>
