<?xml version="1.0" encoding="utf-8"?>
<!-- Generator: Adobe Illustrator 24.0.1, SVG Export Plug-In . SVG Version: 6.00 Build 0)  -->
<svg version="1.1" id="图层_1" xmlns="http://www.w3.org/2000/svg" xmlns:xlink="http://www.w3.org/1999/xlink" x="0px" y="0px"
	 viewBox="0 0 500 200" style="enable-background:new 0 0 500 200;" xml:space="preserve">
<style type="text/css">
	.st0{fill:url(#SVGID_1_);}
	.st1{fill:#999999;}
	.st2{fill:#D8EEFE;}
	.st3{fill:url(#SVGID_2_);}
	.st4{fill:none;}
	.st5{fill:#4788C6;}
	.st6{fill:url(#SVGID_3_);}
	.st7{fill:#FBFCFE;}
	.st8{fill:#4F8DC9;}
	.st9{fill:#4888C7;}
	.st10{fill:#4D8CC8;}
	.st11{fill:#518FCA;}
	.st12{fill:#4888C6;}
	.st13{fill:#B5DBFD;}
	.st14{fill:#FDFEFE;}
	.st15{fill:#FBFCFD;}
	.st16{fill:url(#SVGID_4_);}
</style>
<g>
	<linearGradient id="SVGID_1_" gradientUnits="userSpaceOnUse" x1="22.5" y1="56.5" x2="477.5" y2="56.5">
		<stop  offset="0" style="stop-color:#3DA9FC"/>
		<stop  offset="0.155" style="stop-color:#3DA1FC"/>
		<stop  offset="0.3889" style="stop-color:#3E8DFC"/>
		<stop  offset="0.6724" style="stop-color:#3F6BFC"/>
		<stop  offset="0.9925" style="stop-color:#403CFC"/>
		<stop  offset="1" style="stop-color:#403BFC"/>
	</linearGradient>
	<path class="st0" d="M28.1,98.5c-3.1,0-5.6-2.5-5.6-5.6V20.1c0-3.1,2.5-5.6,5.6-5.6h443.8c3.1,0,5.6,2.5,5.6,5.6v72.8
		c0,3.1-2.5,5.6-5.6,5.6H28.1z"/>
	<path class="st1" d="M28.1,14v1l443.8,0c2.8,0,5.1,2.3,5.1,5.1v72.8c0,2.8-2.3,5.1-5.1,5.1L28.1,98c-2.8,0-5.1-2.3-5.1-5.1V20.1
		c0-2.8,2.3-5.1,5.1-5.1V14 M28.1,14c-3.4,0-6.1,2.8-6.1,6.1v72.8c0,3.4,2.8,6.1,6.1,6.1l443.8,0c3.4,0,6.1-2.8,6.1-6.1V20.1
		c0-3.4-2.8-6.1-6.1-6.1L28.1,14L28.1,14z"/>
</g>
<g>
	<path class="st2" d="M45,84.5c-4.1,0-7.5-3.4-7.5-7.5V38c0-4.1,3.4-7.5,7.5-7.5h410c4.1,0,7.5,3.4,7.5,7.5v39
		c0,4.1-3.4,7.5-7.5,7.5H45z"/>
	<path class="st1" d="M455,31c3.9,0,7,3.1,7,7v39c0,3.9-3.1,7-7,7H45c-3.9,0-7-3.1-7-7V38c0-3.9,3.1-7,7-7H455 M455,30H45
		c-4.4,0-8,3.6-8,8v39c0,4.4,3.6,8,8,8h410c4.4,0,8-3.6,8-8V38C463,33.6,459.4,30,455,30L455,30z"/>
</g>
<g>
	<linearGradient id="SVGID_2_" gradientUnits="userSpaceOnUse" x1="22.5" y1="141.5" x2="477.5" y2="141.5">
		<stop  offset="0" style="stop-color:#3DA9FC"/>
		<stop  offset="0.155" style="stop-color:#3DA1FC"/>
		<stop  offset="0.3889" style="stop-color:#3E8DFC"/>
		<stop  offset="0.6724" style="stop-color:#3F6BFC"/>
		<stop  offset="0.9925" style="stop-color:#403CFC"/>
		<stop  offset="1" style="stop-color:#403BFC"/>
	</linearGradient>
	<path class="st3" d="M28.1,183.5c-3.1,0-5.6-2.5-5.6-5.6v-72.8c0-3.1,2.5-5.6,5.6-5.6h443.8c3.1,0,5.6,2.5,5.6,5.6v72.8
		c0,3.1-2.5,5.6-5.6,5.6H28.1z"/>
	<path class="st1" d="M28.1,99v1l443.8,0c2.8,0,5.1,2.3,5.1,5.1v72.8c0,2.8-2.3,5.1-5.1,5.1l-443.8,0c-2.8,0-5.1-2.3-5.1-5.1v-72.8
		c0-2.8,2.3-5.1,5.1-5.1V99 M28.1,99c-3.4,0-6.1,2.8-6.1,6.1v72.8c0,3.4,2.8,6.1,6.1,6.1l443.8,0c3.4,0,6.1-2.8,6.1-6.1v-72.8
		c0-3.4-2.8-6.1-6.1-6.1L28.1,99L28.1,99z"/>
</g>
<g>
	<path class="st2" d="M45,168.5c-4.1,0-7.5-3.4-7.5-7.5v-39c0-4.1,3.4-7.5,7.5-7.5h410c4.1,0,7.5,3.4,7.5,7.5v39
		c0,4.1-3.4,7.5-7.5,7.5H45z"/>
	<path class="st1" d="M455,115c3.9,0,7,3.1,7,7v39c0,3.9-3.1,7-7,7H45c-3.9,0-7-3.1-7-7v-39c0-3.9,3.1-7,7-7H455 M455,114H45
		c-4.4,0-8,3.6-8,8v39c0,4.4,3.6,8,8,8h410c4.4,0,8-3.6,8-8v-39C463,117.6,459.4,114,455,114L455,114z"/>
</g>
<g>
	<path class="st4" d="M53.5,141.5c0-4.4,0-8.7,0-13.1c0-0.7,0.1-0.9,0.9-0.9c8.7,0,17.5,0,26.2,0c0.7,0,0.9,0.1,0.9,0.9
		c0,8.7,0,17.5,0,26.2c0,0.7-0.1,0.9-0.9,0.9c-8.7,0-17.5,0-26.2,0c-0.7,0-0.9-0.1-0.9-0.9C53.5,150.2,53.5,145.9,53.5,141.5z"/>
	<path class="st5" d="M67.6,154.1c-3.7,0-7.5,0-11.2,0c-1.1,0-1.5-0.2-1.5-1.4c0.1-3.7,0-7.5,0-11.2c0-2.3,1-3.3,3.3-3.2
		c1.3,0,1.6-0.4,1.6-1.6c0-4.7,3.2-8.1,7.7-8.1c4.4,0,7.6,3.3,7.6,8.1c0,1.3,0.4,1.6,1.7,1.6c2.2-0.1,3.2,1,3.3,3.1
		c0,3.8,0,7.6,0,11.4c0,1-0.3,1.4-1.4,1.4C75,154.1,71.3,154.1,67.6,154.1z"/>
	<g>
		<linearGradient id="SVGID_3_" gradientUnits="userSpaceOnUse" x1="56.0981" y1="146.1641" x2="78.9033" y2="146.1641">
			<stop  offset="0" style="stop-color:#3DA9FC"/>
			<stop  offset="1" style="stop-color:#D8EEFE"/>
		</linearGradient>
		<path class="st6" d="M57,152.9c-0.4,0-0.6,0-0.7-0.1c-0.1-0.1-0.1-0.3-0.1-0.7c0-2,0-4,0-6c0-1.6,0-3.1,0-4.7c0-1.4,0.6-2,1.9-2
			c3.1,0,6.2,0,9.3,0c3.2,0,6.3,0,9.5,0c1.4,0,1.9,0.6,1.9,2c0,1.6,0,3.1,0,4.7c0,2,0,4,0,6c0,0.3,0,0.6-0.1,0.7
			c-0.1,0.1-0.3,0.1-0.7,0.1c-1.7,0-3.3,0-4.8,0l-5.9,0l-5.7,0C60.1,152.9,58.6,152.9,57,152.9L57,152.9z"/>
		<path class="st1" d="M67.5,139.9c3.1,0,6.3,0,9.4,0c1.1,0,1.4,0.3,1.4,1.5c0,1.6,0,3.1,0,4.7c0,2,0,4,0,6c0,0.1,0,0.2,0,0.3
			c-0.1,0-0.2,0-0.3,0l-0.1,0c-1.6,0-3.2,0-4.8,0c-1,0-2,0-2.9,0c-1,0-2,0-2.9,0c-0.9,0-1.9,0-2.8,0c-1,0-1.9,0-2.9,0
			c-1.5,0-3.1,0-4.6,0l-0.1,0c-0.2,0-0.3,0-0.3,0c0-0.1,0-0.2,0-0.3c0-2,0-4,0-6c0-1.6,0-3.1,0-4.7c0-1.1,0.3-1.5,1.5-1.5
			C61.2,139.9,64.4,139.9,67.5,139.9 M67.5,138.9c-3.1,0-6.3,0-9.4,0c-1.7,0-2.4,0.8-2.4,2.5c0,3.6,0,7.1,0,10.7
			c0,1.1,0.4,1.3,1.4,1.3c0,0,0.1,0,0.1,0c1.5,0,3.1,0,4.6,0c1.9,0,3.8,0,5.7,0c2,0,3.9,0,5.9,0c1.6,0,3.2,0,4.8,0c0,0,0,0,0.1,0
			c1,0,1.4-0.3,1.4-1.3c-0.1-3.6,0-7.1,0-10.7c0-1.7-0.8-2.5-2.4-2.5C73.8,138.9,70.6,138.9,67.5,138.9L67.5,138.9z"/>
	</g>
	<g>
		<path class="st2" d="M72.5,137.7c-0.7,0-1.4,0-2.1,0c-0.5,0-1,0-1.5,0c-0.5,0-1,0-1.5,0c-0.5,0-2.5,0-3,0c-0.7,0-1.4,0-2.1,0
			c0,0-0.1,0-0.1,0c-0.4,0-0.5,0-0.5-0.7c-0.1-2,0.5-3.7,1.7-4.9c1.1-1.1,2.5-1.7,4.1-1.7c1.6,0,3,0.6,4,1.6
			c1.2,1.2,1.8,2.9,1.8,4.8c0,0.9-0.1,0.9-0.6,0.9L72.5,137.7z"/>
		<path class="st1" d="M67.5,129.9v1c1.5,0,2.7,0.5,3.7,1.5c1.1,1.1,1.7,2.7,1.6,4.5c0,0.2,0,0.3,0,0.4c0,0-0.1,0-0.1,0
			c0,0-0.1,0-0.1,0c-0.6,0-1.3-0.1-2.1-0.1c-0.5,0-1,0-1.5,0c-0.5,0-1,0-1.5,0c-0.5,0-1,0-1.5,0c-0.5,0-1,0-1.5,0
			c-0.8,0-1.5,0-2.1,0l-0.1,0c0,0,0,0,0,0c0-0.1,0-0.1,0-0.2c-0.1-1.8,0.5-3.5,1.6-4.6c1-1,2.2-1.5,3.7-1.5L67.5,129.9 M67.5,129.9
			C67.5,129.9,67.5,129.9,67.5,129.9c-3.8,0-6.4,3-6.3,7.1c0,0.8,0.2,1.2,1.1,1.2c0,0,0.1,0,0.1,0c0.7,0,1.4,0,2.1,0c1,0,2,0,3,0
			c0,0,0,0,0,0c1,0,2,0,3,0c0.7,0,1.4,0,2,0c0.1,0,0.1,0,0.2,0c0.9,0,1.1-0.4,1.1-1.4C73.8,132.8,71.2,129.9,67.5,129.9L67.5,129.9z
			"/>
	</g>
	<path class="st7" d="M62,145.1c0.8,0.1,1.3,0.6,1.3,1.3c0,0.9-0.5,1.4-1.4,1.4c-0.9,0-1.4-0.6-1.3-1.5
		C60.6,145.6,61.2,145.2,62,145.1z"/>
	<path class="st7" d="M68.9,146.5c-0.1,0.8-0.6,1.4-1.5,1.3c-0.8,0-1.3-0.6-1.3-1.3c0-0.9,0.6-1.4,1.4-1.3
		C68.4,145.2,68.8,145.7,68.9,146.5z"/>
	<path class="st7" d="M73,145.1c0.8,0.1,1.3,0.5,1.4,1.2c0.1,0.9-0.4,1.4-1.3,1.5c-0.9,0-1.4-0.5-1.4-1.4
		C71.7,145.7,72.3,145.3,73,145.1z"/>
</g>
<g>
	<path class="st4" d="M54.5,58.5c0-5.3,0-10.6,0-15.9c0-0.9,0.1-1.1,1.1-1.1c10.6,0,21.2,0,31.8,0c0.9,0,1.1,0.1,1.1,1.1
		c0,10.6,0,21.2,0,31.8c0,0.9-0.1,1.1-1.1,1.1c-10.6,0-21.2-0.1-31.8,0c-1.3,0-1.1-0.6-1.1-1.3C54.5,69,54.5,63.7,54.5,58.5z"/>
	<path class="st8" d="M56.7,67.5c0.9-1.8,2.4-2.9,4.2-3.6c2.9-1.2,3-1.3,1.3-4c0.1-0.3,0.3-0.5,0.6-0.5c0.6,0.1,1,0.5,1.4,0.9
		c2.4,2,3.5,2,6,0c0.4-0.4,0.8-0.8,1.4-0.9c0.4,0,0.5,0.2,0.6,0.5c-0.2,0.4-0.5,0.8-0.7,1.2c-0.6,1.2-0.5,2.1,1.1,2.5
		c2.3,0.5,4.1,1.8,5.2,3.9c-0.1,0.3-0.3,0.5-0.7,0.5c-0.8-0.2-1.2-0.9-1.8-1.4c-1.8-1.4-3.6-2.4-5.9-0.9c-1.4,0.9-3.1,0.9-4.4,0
		c-2.3-1.5-4.1-0.5-5.9,0.9c-0.6,0.5-1,1.2-1.8,1.4C57,68,56.8,67.8,56.7,67.5z"/>
	<path class="st9" d="M77.4,68c0.1-0.2,0.3-0.3,0.4-0.5c0.1,0.1,0.2,0.2,0.3,0.3c1.8,3.4,1.5,3.9-2.3,3.9c-6,0-12.1,0-18.1,0
		c-2.5,0-2.7-0.2-1.8-2.5c0.2-0.6,0.6-1.1,0.9-1.6c0.1,0.2,0.3,0.3,0.4,0.5c0,2,1.2,2.3,3,2.3c4.8-0.1,9.5-0.1,14.3,0
		C76.2,70.3,77.4,70,77.4,68z"/>
	<path class="st10" d="M62.7,59.4c-0.1,0.2-0.3,0.4-0.4,0.5c-1.7-3.7-3.3-7.4-2.1-11.7c0-0.2,0.2-0.3,0.3-0.5
		c0.4-0.1,0.6,0.1,0.8,0.4c0.3,1.4-0.5,2.9,0,4.1c2-2.6,5.3-1.3,7.8-2.5c0.3,0.2,0.5,0.4,0.6,0.8c-0.8,1.7-2.4,1.8-3.9,2
		c-2.7,0.4-2.8,0.5-2.9,3.2C62.7,57,63.3,58.2,62.7,59.4z"/>
	<path class="st10" d="M69.5,50.3c-0.2-0.1-0.3-0.3-0.5-0.4c0.6-1.6,1.4-2,2.6-1.1c1.1,0.7,1.8,1.7,2,3.1c0-1.1-0.5-2.1-0.3-3.2
		c0.1-0.3,0.3-0.5,0.7-0.4c1.8,2.5,0.6,5.2,0,7.6c-0.3,1.3-0.7,2.9-1.8,4.1c-0.1-0.2-0.3-0.4-0.4-0.5c-0.5-2,0.2-4.1-0.1-6.2
		C71.6,51.7,71.3,50.5,69.5,50.3z"/>
	<path class="st11" d="M74,48.2c-0.2,0.2-0.3,0.3-0.5,0.5c-1.3,0-2.1-1-3.1-1.6c-2.8-2.2-5.4-2.1-8.1,0.2c-0.5,0.4-0.8,1-1.5,1
		c-0.2-0.2-0.3-0.4-0.5-0.5c2.1-3.9,7.4-5,10.6-2.1C72,46.6,73.6,46.8,74,48.2z"/>
	<path class="st9" d="M74.9,60c1.4-1,9.6-1.2,12.5-0.4C83.4,60.2,79.3,59.8,74.9,60z"/>
	<path class="st9" d="M76.2,63.5c3.7,0,7.5,0,11.2,0c0,0.1,0,0.2,0,0.4c-3.8,0-7.5,0-11.3,0C76.1,63.7,76.2,63.6,76.2,63.5z"/>
	<path class="st12" d="M87.4,55.6c-3.6,0-7.1,0-10.7,0c0-0.1,0-0.2,0-0.3c3.6,0,7.1,0,10.7,0C87.4,55.3,87.4,55.5,87.4,55.6z"/>
	<path class="st13" d="M77.4,68c1,2.8,1,2.8-2,2.8c-5.4,0-10.9,0-16.3,0c-3,0-3,0-2-2.9c0.8-0.8,1.5-1.9,2.6-2.4
		c1.7-0.9,3.3-2.1,5.3-0.4c1.2,1,3.1,1.1,4.4,0.1c2.5-1.9,4.3-0.5,6.1,0.8C76.2,66.6,76.8,67.4,77.4,68z"/>
	<path class="st14" d="M69.5,50.3c1.5-0.8,2.7-0.1,2.8,1.8c0.2,2.4,0.4,4.9-0.4,7.2c-1.7,1.8-3.4,3.6-6.2,2.6
		c-1.2-0.4-2.1-1.6-3-2.6c-0.2-0.9-0.5-1.8-0.5-2.8c0-4.1-0.1-4.1,4-4.7C67.4,51.7,68.6,51.4,69.5,50.3z"/>
	<path class="st15" d="M64.3,62.1c1.7,1.1,3.2,1.4,4.9,0.4c0.2-0.1,0.7-0.4,0.9,0c0.2,0.3,0.2,0.7,0.1,1c-0.9,1.5-2.3,1.8-3.9,1.4
		C65.1,64.6,63.9,64,64.3,62.1z"/>
	<linearGradient id="SVGID_4_" gradientUnits="userSpaceOnUse" x1="60.4932" y1="49.1697" x2="74.0138" y2="49.1697">
		<stop  offset="0" style="stop-color:#3DA9FC"/>
		<stop  offset="0.1222" style="stop-color:#45ACFC"/>
		<stop  offset="0.3066" style="stop-color:#59B6FC"/>
		<stop  offset="0.5304" style="stop-color:#7BC5FD"/>
		<stop  offset="0.7825" style="stop-color:#AAD9FD"/>
		<stop  offset="1" style="stop-color:#D8EEFE"/>
	</linearGradient>
	<path class="st16" d="M60.9,48.3c2.4-3.1,6-4.4,8.5-2.7c1.5,0.9,2.8,2.1,4.1,3.1c0.5,1.5,0.8,3-0.3,4.8c-0.1-1.5-0.3-2.7-1.2-3.7
		c-1.1-1.2-2.2-1.5-3.1,0.1c-1.4,0.8-2.8,1.4-4.4,1.2c-1.7-0.2-2.9,0.4-3.4,2.3C60.1,51.6,60.5,50,60.9,48.3z"/>
</g>
</svg>
